<?xml version="1.0" encoding="UTF-8"?>
<svg id="Capa_1" xmlns="http://www.w3.org/2000/svg" viewBox="0 0 1080 402.16">
  <defs>
    <style>
      .cls-1 {
        letter-spacing: -.04em;
      }

      .cls-2 {
        letter-spacing: 0em;
      }

      .cls-3 {
        letter-spacing: 0em;
      }

      .cls-4 {
        letter-spacing: 0em;
      }

      .cls-5 {
        letter-spacing: 0em;
      }

      .cls-6 {
        letter-spacing: -.05em;
      }

      .cls-7 {
        letter-spacing: -.07em;
      }

      .cls-8 {
        fill: none;
        stroke: #ba191a;
        stroke-width: 3px;
      }

      .cls-8, .cls-9 {
        stroke-miterlimit: 10;
      }

      .cls-10 {
        font-size: 25px;
      }

      .cls-10, .cls-11 {
        fill: #1d1d1b;
        font-family: SeravekBasic-Regular, 'Seravek Basic';
      }

      .cls-12 {
        letter-spacing: 0em;
      }

      .cls-11 {
        font-size: 165px;
      }

      .cls-9 {
        fill: #ba1a1c;
        stroke: #fff;
      }
    </style>
  </defs>
  <rect class="cls-9" x="33.02" y="51.31" width="8" height="8.39"/>
  <g>
    <path class="cls-8" d="M37.16,331.84H11.1c1.84,1.33,4.91,3.97,6.77,8.32.63,1.47,1,2.86,1.23,4.06h40.77l58.32-50.06h6.71l84.39-71.23,24.52,12.65,60.13.26-54.71-20.13-19.87-3.87h-15.23l-88.77,73.03-57.29,46.97h-16.77"/>
    <polyline class="cls-8" points="104.35 350.55 81.52 350.55 86.81 346.29 79.97 342.16 119.19 342.16 164.35 310.16 178.29 300.23 235.06 243.32 311.06 243.32 311.06 253.39 235.97 257.9 185.13 310.03 179.58 310.16 126.16 350.55 108.1 350.55"/>
    <polygon class="cls-8" points="194.94 309.78 199.97 317.26 197.45 322.42 221.13 322.42 227.84 319.58 243.06 319.2 283.06 287.07 264.23 287.07 237.9 307.71 212.74 309.9 194.94 309.78"/>
    <polyline class="cls-8" points="241.62 257.56 261.52 282.16 299.97 282.16 312.35 279.45 329.13 266.81 314.94 254.16 315.19 226.42 331.84 226.42 361.52 243.32 375.06 238.03 390.16 187.32 445.52 330.94 481.65 333.26 481.65 343.07 444.48 343.07 392.74 227.97 368.1 281.78 322.81 255.97 320.48 230.94 330.42 230.94 363.71 258.55 371.06 258.42 375.06 238.03"/>
    <polygon class="cls-8" points="43.55 294.65 48.48 300.55 46.02 307.13 84.68 303.45 102.68 289.71 102.68 279.45 83.52 293.78 43.55 294.65"/>
    <polyline class="cls-8" points="108.73 302.29 108.73 322.42 213.16 237.58 233.44 244.96"/>
    <path class="cls-8" d="M108.73,290.3l-.6-49.88c.52-6.32,2.93-25.8,18.58-42.39,14.15-15,30.85-18.86,39.21-20.67,6.08-1.32,36.23-7.13,64.01,11.63,12.32,8.32,19.62,18.4,23.48,24.71,7.81,2.73,15.61,5.46,23.42,8.19l3.35-11.61-2.84-16,26.06-3.61,29.68-22.19,6.71-5.16,6.71-8.26s-8.77-8.26-10.84-7.74c-2.06.52,37.16-25.34,73.81-.02l18.32,17.31s25.55-12.13,37.94,10.06c0,0,13.68,26.32,0,68.65,0,0-14.76,34.54-41.03,0l-10.32-30.09c-3.67,2.8-7.33,5.61-11,8.41"/>
    <path class="cls-8" d="M479.94,213.24v-12.15s32.77,27.66,34.58,36.5c0,0,14.45,27.16,0,62.77,0,0-9.03,11.1-12.39,4.39s7.74-9.81,7.74-9.81c0,0,9.81-33.81-2.58-53.42s-27.35-28.28-27.35-28.28Z"/>
    <polygon class="cls-8" points="427.03 253.99 448.13 319.58 469.81 325 487.42 325 487.42 317.84 494.58 317.65 456.06 308.55 441.94 265.2 427.03 253.99"/>
    <path class="cls-8" d="M339.35,155.26l-28.29,20.32L53.48,113.07s-29.42-16.06-31.16-36.19,30.97-31.55,53.42-24.39,263.61,102.77,263.61,102.77Z"/>
    <path class="cls-8" d="M301.03,186.23l4.06-7.16L49.42,119.07s-26.52-16.26-29.23-33.48c0,0-21.1,18.58,18.39,46.06,0,0,55.03,24.58,262.45,54.58Z"/>
    <ellipse class="cls-8" cx="455.16" cy="200.87" rx="14.77" ry="31.1"/>
    <path class="cls-8" d="M449.59,172.06c-1.82.73-4.28,1.96-6.75,4.03-11.37,9.54-9.86,26.15-9.62,28.44.36,3.35,1.45,12.44,8.71,19.69,2.76,2.76,5.6,4.44,7.66,5.45"/>
    <rect class="cls-9" x="132.89" y="71.86" width="8" height="8.39"/>
    <rect class="cls-9" x="268.82" y="123.92" width="8" height="8.39"/>
    <rect class="cls-9" x="33.02" y="128.11" width="8" height="8.39"/>
    <rect class="cls-9" x="248.11" y="174.24" width="8" height="8.39"/>
    <rect class="cls-9" x="159.08" y="174.24" width="8" height="8.39"/>
    <rect class="cls-9" x="104.73" y="234.94" width="8" height="8.39"/>
    <rect class="cls-9" x="106.05" y="346.36" width="8" height="8.39"/>
    <rect class="cls-9" x="40.63" y="327.36" width="8" height="8.39"/>
    <rect class="cls-9" x="57.27" y="300.55" width="8" height="8.39"/>
    <rect class="cls-9" x="127.34" y="302.94" width="8" height="8.39"/>
    <rect class="cls-9" x="165.79" y="300.55" width="8" height="8.39"/>
    <rect class="cls-9" x="216.18" y="270.82" width="8" height="8.39"/>
    <rect class="cls-9" x="244.11" y="240.24" width="8" height="8.39"/>
    <rect class="cls-9" x="249.79" y="269.65" width="8" height="8.39"/>
    <rect class="cls-9" x="317.79" y="269.65" width="8" height="8.39"/>
    <rect class="cls-9" x="206.89" y="318.23" width="8" height="8.39"/>
    <rect class="cls-9" x="268.24" y="292.74" width="8" height="8.39"/>
    <rect class="cls-9" x="363.85" y="278.03" width="8" height="8.39"/>
    <rect class="cls-9" x="276.24" y="207.65" width="8" height="8.39"/>
    <rect class="cls-9" x="335.35" y="161.39" width="8" height="8.39"/>
    <rect class="cls-9" x="414.28" y="151.3" width="8" height="8.39"/>
    <rect class="cls-9" x="385.92" y="135.9" width="8" height="8.39"/>
    <rect class="cls-9" x="508.05" y="227.78" width="8" height="8.39"/>
    <rect class="cls-9" x="508.05" y="256.81" width="8" height="8.39"/>
    <rect class="cls-9" x="464.5" y="320.81" width="8" height="8.39"/>
    <rect class="cls-9" x="429.02" y="292.74" width="8" height="8.39"/>
    <rect class="cls-9" x="399.66" y="249.8" width="8" height="8.39"/>
    <rect class="cls-9" x="415.92" y="225.48" width="8" height="8.39"/>
    <rect class="cls-9" x="429.02" y="199.79" width="8" height="8.39"/>
    <rect class="cls-9" x="451.16" y="230.57" width="8" height="8.39"/>
    <rect class="cls-9" x="429.85" y="182.03" width="8" height="8.39"/>
    <rect class="cls-9" x="351.85" y="236.05" width="8" height="8.39"/>
    <text class="cls-11" transform="translate(554.82 286.42)"><tspan class="cls-7" x="0" y="0">A</tspan><tspan x="100.32" y="0">VIS</tspan><tspan class="cls-6" x="324.22" y="0">P</tspan><tspan x="398.97" y="0">A</tspan></text>
    <text class="cls-10" transform="translate(558.59 320.81)"><tspan x="0" y="0">Ambie</tspan><tspan class="cls-12" x="70.05" y="0">n</tspan><tspan class="cls-5" x="83.7" y="0">t</tspan><tspan x="93.3" y="0">es</tspan><tspan class="cls-1" x="115.85" y="0"> </tspan><tspan x="120.22" y="0">Visua</tspan><tspan class="cls-5" x="177.67" y="0">l</tspan><tspan x="184.45" y="0">es de P</tspan><tspan class="cls-3" x="256.15" y="0">r</tspan><tspan class="cls-2" x="265.1" y="0">og</tspan><tspan class="cls-4" x="291.57" y="0">r</tspan><tspan x="300.45" y="0">amación Aplicati</tspan><tspan class="cls-12" x="479.84" y="0">v</tspan><tspan class="cls-2" x="491.39" y="0">a</tspan></text>
  </g>
</svg>