<?xml version="1.0" encoding="UTF-8"?>
<svg id="Capa_1" xmlns="http://www.w3.org/2000/svg" viewBox="0 0 1080 1080">
  <defs>
    <style>
      .cls-1 {
        letter-spacing: 0em;
      }

      .cls-2, .cls-3, .cls-4, .cls-5, .cls-6, .cls-7 {
        stroke-miterlimit: 10;
      }

      .cls-2, .cls-4, .cls-5, .cls-6 {
        stroke-width: 6px;
      }

      .cls-2, .cls-6, .cls-7 {
        stroke: #212d52;
      }

      .cls-2, .cls-8 {
        fill: #212d52;
      }

      .cls-9, .cls-3, .cls-4, .cls-7 {
        fill: #fff;
      }

      .cls-10 {
        letter-spacing: 0em;
      }

      .cls-3 {
        stroke-width: 3px;
      }

      .cls-3, .cls-4 {
        stroke: #fff;
      }

      .cls-11 {
        fill: #202d52;
      }

      .cls-5 {
        stroke: #1d1d1b;
      }

      .cls-5, .cls-6 {
        fill: none;
      }

      .cls-7 {
        stroke-width: 5px;
      }

      .cls-8 {
        font-family: Arcon-Regular, Arcon;
        font-size: 78px;
      }

      .cls-12 {
        letter-spacing: 0em;
      }
    </style>
  </defs>
  <g>
    <polygon class="cls-11" points="0 910.33 23.21 910.33 23.2 863.98 47.63 863.98 47.63 855.43 23.18 855.43 23.14 828.59 8.5 828.59 8.54 778.56 0 778.56 0 910.33"/>
    <path class="cls-11" d="M23.18,822.48h-8.53v-43.93s47.59,0,47.59,0c3.31.38,19.34,2.57,30.04,16.55,8.52,11.13,8.73,23.1,8.74,27.29,0,4.62.03,17.11-8.93,27.63-10.14,11.9-25.04,13.37-29.85,13.85-3.56.35-6.53.25-8.54.1v-13.42h-24.42v-14.64s31.74,0,31.74,0c6.69-1.13,11.69-6.67,12.1-13.14.44-7.08-4.74-13.66-12.1-14.94-12.61,0-25.23,0-37.84,0v14.64Z"/>
    <polygon class="cls-11" points="119.6 909.11 148.83 896.85 148.89 863.99 174.53 863.99 205.03 910.35 239.18 910.34 196.48 846.9 148.87 846.9 148.89 828.6 134.24 828.6 134.28 778.56 119.6 778.56 119.6 909.11"/>
    <path class="cls-11" d="M154.99,840.8l43.94-.02,9.8,14.64h2.4c3.35-2.41,8.65-6.92,12.36-14.15,8.56-16.69,4.71-40.21-10.55-53.08-9.16-7.73-19.68-9.29-25.25-9.63h-47.32v43.93l8.52.02v-14.66s40.28,0,40.28,0c6.46,1.97,10.71,8.18,10.22,14.85-.5,6.8-5.82,12.38-12.65,13.23h-31.74c0,1.63,0,3.25,0,4.88Z"/>
    <ellipse class="cls-11" cx="315.29" cy="844.45" rx="65.71" ry="65.9"/>
    <ellipse class="cls-9" cx="314.88" cy="844.68" rx="36.29" ry="36.39"/>
    <path class="cls-9" d="M297.9,875.76l-12.06,18.58c-5.19-2.77-8.84-5.88-11.18-8.18-5.34-5.25-8.22-10.59-10.24-14.4-1.65-3.12-2.8-5.84-3.55-7.81-.97.05-2.05.21-3.23.39-1.73.27-3.68.7-4.58,1.33-.3-.89-.59-1.82-.88-2.79-.26-.88-.48-1.74-.69-2.57,4.01-.79,8.01-1.57,12.02-2.36,0,0,7.61,23.55,20.84,29.29l9.61-14.26,3.94,2.77Z"/>
    <path class="cls-9" d="M330.94,812.79l10.86-19.31c5.36,2.43,9.2,5.31,11.68,7.45,5.66,4.9,8.88,10.04,11.14,13.72,1.85,3.01,3.16,5.65,4.04,7.57.97-.12,2.03-.34,3.2-.6,1.71-.38,3.63-.94,4.49-1.62.27.7.54,1.42.81,2.16.38,1.07.72,2.1,1.03,3.11-3.93,1.03-7.85,2.07-11.78,3.1,0,0-9.1-23.02-22.66-27.91l-8.69,14.84-4.1-2.52Z"/>
    <polygon class="cls-11" points="428.33 910.33 400.29 910.33 400.33 805.43 461.33 865.24 461.33 881.06 430.81 850.54 428.4 850.59 428.33 910.33"/>
    <polygon class="cls-11" points="400.33 779.77 482.04 861.57 484.55 861.57 566.27 779.78 566.23 909.07 536.99 896.92 536.99 850.57 483.3 903.05 467.43 887.18 467.44 863.95 400.29 796.83 400.33 779.77"/>
    <path class="cls-11" d="M618.72,790.8l-28.03-12.19v75.32c2.45,31.66,29.17,56.4,60.9,56.42,31.76.02,58.52-24.74,60.97-56.42v-75.32h-28.9l-.19,71.9c-1.39,16.74-15.35,29.78-31.87,30.03-16.96.26-31.58-13.02-32.9-30.23.01-19.84.02-39.68.03-59.52Z"/>
    <path class="cls-9" d="M695.56,891.58l-11.59-10.52s-11,15.16-34.74,13.45v-14.02s1.02.6,6.16-.24v8.16s14.25,1.63,27.97-13.55l15.33,13.22s-1.51,2.34-3.13,3.49Z"/>
    <g>
      <rect class="cls-11" x="736.18" y="778.6" width="28.84" height="131.74"/>
      <rect class="cls-11" x="736.18" y="880.78" width="96.19" height="29.56"/>
      <path class="cls-11" d="M736.18,859.49h86.52c3.23-9.87,6.45-19.74,9.68-29.61-32.06.06-64.13.13-96.19.19v29.42Z"/>
      <rect class="cls-11" x="736.18" y="778.6" width="96.19" height="29.02"/>
    </g>
    <rect class="cls-9" x="731.96" y="827.04" width="17.35" height="6.39"/>
    <rect class="cls-9" x="743.31" y="827.04" width="6" height="23.74"/>
    <rect class="cls-9" x="743.31" y="844.47" width="34.19" height="6.31"/>
    <rect class="cls-9" x="771.44" y="844.47" width="6.06" height="15.53"/>
    <polygon class="cls-11" points="843.7 778.6 907.47 917.04 971.25 778.6 938.93 778.6 907.47 842.99 876.99 778.6 843.7 778.6"/>
    <path class="cls-9" d="M917.77,894.68c-1.85-3.79-3.71-7.58-5.56-11.37,3.23-6.08,6.45-12.16,9.68-18.24-4.04-8.93-8.08-17.85-12.12-26.78-.77,1.57-1.53,3.13-2.3,4.7l9.97,21.65-9.97,18.73,8.11,16.07,2.19-4.76Z"/>
    <polygon class="cls-11" points="1005.59 910.26 973.89 910.26 995.89 862.8 1027.63 862.8 1017.63 883.44 1078.86 883.51 1078.86 905.38 1067.9 909.14 1064.2 900.57 1009.26 900.57 1005.59 910.26"/>
    <polygon class="cls-11" points="1078.86 877.42 1027.62 877.42 1030.1 871.32 1049.62 871.32 1049.62 868.87 1036.74 842.99 1029.99 856.61 998.27 856.64 1036.9 772.33 1078.86 864.17 1078.86 877.42"/>
  </g>
  <g>
    <polygon class="cls-11" points="204.16 646.23 290.48 703.52 336.55 689.97 409.71 737.59 455.77 716.3 528.93 722.49 558.35 667.91 581.58 637.72 651.59 676.81 720.16 676.81 723.26 559.52 695.77 559.52 653.97 512.68 664.8 499.14 702.35 542.88 723.26 543.26 813.45 387.65 786.74 369.07 789.06 278.49 761.97 263.39 770.87 198.36 810.35 171.65 808.8 148.43 762.74 131.39 754.61 107.01 715.51 51.65 677.19 112.43 635 146.88 634.61 211.52 695.38 212.3 695.38 266.1 648.93 329.59 636.16 317.59 677.58 261.46 677.58 228.17 617.97 228.17 618.35 171.26 579.26 249.07 528.93 263.39 527.38 282.36 531.26 336.17 438.35 394.62 396.16 379.91 396.93 374.88 388.42 364.43 246.35 340.04 213.45 392.68 308.68 470.88 308.68 540.5 255.64 562.62 233.58 599.01 405.84 599.01 405.84 644.68 490.22 644.68 491.77 571.91 508.8 576.94 508.8 660.94 391.13 660.94 390.74 616.81 221.19 616.04 204.16 646.23"/>
    <circle class="cls-7" cx="536.07" cy="431.13" r="148.41"/>
    <circle class="cls-5" cx="212.17" cy="500.98" r="16.82"/>
    <circle class="cls-6" cx="504.29" cy="181.46" r="16.82"/>
    <circle class="cls-5" cx="799.9" cy="511.65" r="16.82"/>
    <circle class="cls-4" cx="722.55" cy="344.04" r="16.82"/>
    <circle class="cls-4" cx="654.46" cy="608.17" r="16.82"/>
    <circle class="cls-3" cx="379.1" cy="547.52" r="13.4"/>
    <circle class="cls-2" cx="858.7" cy="250.44" r="22.61"/>
    <circle class="cls-2" cx="343.09" cy="286.43" r="22.61"/>
    <circle class="cls-2" cx="783.09" cy="659.59" r="22.61"/>
    <polyline class="cls-6" points="223.91 488.94 469.06 399.14 500.03 428.04 500.03 574.35"/>
    <line class="cls-6" x1="620.11" y1="553.46" x2="500.03" y2="461.33"/>
    <polyline class="cls-6" points="661.91 509.83 568.93 428.04 640.54 325.72"/>
    <polyline class="cls-6" points="679.06 391.27 632.42 428.04 683.23 450.45 632.42 428.04 585.19 404.81"/>
    <line class="cls-6" x1="568.93" y1="428.04" x2="500.03" y2="428.04"/>
    <line class="cls-6" x1="520.68" y1="428.04" x2="498.82" y2="197.36"/>
    <line class="cls-6" x1="519.41" y1="188.82" x2="578.48" y2="254.1"/>
    <line class="cls-6" x1="363.51" y1="292.3" x2="469.06" y2="399.14"/>
    <line class="cls-6" x1="308.55" y1="356.3" x2="322.84" y2="296.5"/>
    <line class="cls-6" x1="261.06" y1="565.33" x2="218.04" y2="516.74"/>
    <line class="cls-6" x1="781.85" y1="637.01" x2="799.9" y2="528.47"/>
    <line class="cls-6" x1="759.26" y1="659.59" x2="717.06" y2="629.46"/>
    <line class="cls-6" x1="788.86" y1="498.97" x2="752.87" y2="482.36"/>
    <line class="cls-6" x1="788.16" y1="313.87" x2="846.55" y2="271.49"/>
    <line class="cls-6" x1="842.58" y1="232.3" x2="779.77" y2="190.1"/>
  </g>
  <text class="cls-8" transform="translate(52.81 1002.09)"><tspan class="cls-1" x="0" y="0">Modelos </tspan><tspan class="cls-10" x="305.99" y="0">p</tspan><tspan class="cls-12" x="349.67" y="0">ara la Polarizacion</tspan></text>
  <polygon class="cls-11" points="953.72 956.83 954.95 960.43 965.95 953.14 964.68 949.44 953.72 956.83"/>
</svg>