<?xml version="1.0" encoding="UTF-8"?>
<svg id="Capa_1" xmlns="http://www.w3.org/2000/svg" viewBox="0 0 1080 1537.15">
  <defs>
    <style>
      .cls-1, .cls-2, .cls-3 {
        fill: #fff;
      }

      .cls-4 {
        fill: #e52713;
      }

      .cls-2 {
        stroke-width: 3.56px;
      }

      .cls-2, .cls-3 {
        stroke: #e52713;
      }

      .cls-3 {
        stroke-width: 10px;
      }
    </style>
  </defs>
  <rect class="cls-4" y="0" width="1080.73" height="1543.55"/>
  <rect class="cls-1" y="1073.34" width="1080.73" height="433.28"/>
  <g>
    <path class="cls-4" d="M1003.23,1251.73v-20.3c6.99-.2,12.46-3.04,16.43-8.52,3.51-4.97,5.27-11.38,5.27-19.24,0-8.84-1.45-15.91-4.36-21.24-3.61-6.51-9.39-9.77-17.33-9.8v-21.27c4.08.79,7.68,2.25,10.8,4.38,3.39,2.3,6.53,5.63,9.44,9.99l.36-46.29h25.41v130.33h-24.87v-12.16c-2.9,5.08-7.08,8.89-12.52,11.44-2.65,1.25-5.53,2.14-8.62,2.68h0ZM1003.23,1151.36v21.27h-.09c-7.5,0-13.13,3.02-16.88,9.08-3.15,5.2-4.72,12.04-4.72,20.51,0,7.38,1.39,13.68,4.18,18.88,3.63,6.9,9.19,10.34,16.7,10.34.28,0,.55,0,.82-.01v20.3c-2.27.39-4.66.59-7.17.59-13.43,0-23.79-5.32-31.05-15.97-6.41-9.56-9.62-21.54-9.62-35.94,0-15.85,3.99-28.32,11.98-37.39,7.26-8.23,16.64-12.34,28.14-12.34,2.74,0,5.31.23,7.71.7h0ZM896.22,1250.47v-16.8c3.92-.75,7.43-2.33,10.53-4.77,4.48-3.51,6.72-8.1,6.72-13.8v-12.34c-1.09.84-3.03,1.81-5.81,2.9l-11.44,2.39v-16.92l8.35-1.26c2.78-.36,4.78-.97,5.99-1.81,1.94-1.33,2.9-3.27,2.9-5.81,0-4.6-1.94-7.8-5.81-9.62-2.42-1.09-6.05-1.63-10.89-1.63h-.55s0-20.27,0-20.27c1.18-.04,2.39-.06,3.63-.06,9.44,0,17.55,1.63,24.32,4.9,9.44,4.72,14.16,12.41,14.16,23.05v52.28c0,1.69.03,3.57.09,5.63.06,2.06.51,3.96,1.36,5.72.85,1.76,2.24,3,4.18,3.72v3.81h-27.41c-.97-3.27-1.76-7.08-2.36-11.44-4.12,4.48-7.87,7.57-11.26,9.26-2.09,1.18-4.33,2.13-6.72,2.87h0ZM896.22,1150.72v20.27c-5.29.1-9.22,1.61-11.8,4.53-1.7,1.81-2.79,4.78-3.27,8.89h-24.51c1.21-13.19,6.29-22.51,15.25-27.95,5.97-3.47,14.08-5.38,24.33-5.75h0ZM896.22,1191.13v16.92l-.73.15c-5.45.73-9.26,1.94-11.44,3.63-3.39,2.3-5.08,5.87-5.08,10.71,0,3.87,1.33,6.9,3.99,9.08,2.3,1.69,4.9,2.54,7.81,2.54,1.9,0,3.71-.17,5.45-.5v16.8c-3.99,1.23-8.4,1.85-13.25,1.85-7.99,0-14.7-2.18-20.15-6.54-6.17-5.08-9.26-12.28-9.26-21.6s2.51-16.12,7.53-21.15,11.89-8.26,20.6-9.71l14.52-2.2h0ZM791.39,1251.73v-20.3c6.99-.2,12.46-3.04,16.43-8.52,3.51-4.97,5.27-11.38,5.27-19.24,0-8.84-1.45-15.91-4.36-21.24-3.61-6.51-9.39-9.77-17.33-9.8v-21.27c4.08.79,7.68,2.25,10.8,4.38,3.39,2.3,6.53,5.63,9.44,9.99l.36-46.29h25.41v130.33h-24.87v-12.16c-2.9,5.08-7.08,8.89-12.52,11.44-2.65,1.25-5.53,2.14-8.62,2.68h0ZM791.39,1151.36v21.27h-.09c-7.5,0-13.13,3.02-16.88,9.08-3.15,5.2-4.72,12.04-4.72,20.51,0,7.38,1.39,13.68,4.18,18.88,3.63,6.9,9.19,10.34,16.7,10.34.28,0,.55,0,.82-.01v20.3c-2.27.39-4.66.59-7.17.59-13.43,0-23.78-5.32-31.04-15.97-6.41-9.56-9.62-21.54-9.62-35.94,0-15.85,3.99-28.32,11.98-37.39,7.26-8.23,16.64-12.34,28.14-12.34,2.74,0,5.31.23,7.71.7h0ZM464.46,1252.28v-20.37c.74.05,1.49.07,2.27.07,3.51,0,6.83-.91,9.98-2.72,3.14-1.81,5.27-4.42,6.35-7.8h26.14c-3.03,10.65-8.84,18.7-17.43,24.14-7.26,4.48-15.61,6.72-25.05,6.72-.77,0-1.52-.01-2.27-.03h0ZM464.46,1208.39v-16.52h19.69c0-3.39-.63-6.41-1.9-9.08-1.27-2.66-3.06-4.96-5.35-6.9-3.27-2.91-7.39-4.36-12.34-4.36h-.09v-20.87h.46c11.98,0,21.91,3.33,29.77,9.98,10.41,8.96,15.61,23.36,15.61,43.2v4.54h-45.84ZM583.09,1176.62l-3.27-.18h-4c-8.96,0-15.31,2.48-19.06,7.44-2.91,3.63-4.35,8.84-4.35,15.61v50.28h-25.42v-96.57h24.33v16.7c4.36-7.74,8.56-12.89,12.61-15.43,4.05-2.54,8.8-3.81,14.25-3.81h4.9v25.96h0ZM680.21,1219.1c0,12.22-5.15,21.24-15.43,27.05-7.63,4.12-16.58,6.17-26.87,6.17-12.95,0-23.42-2.3-31.4-6.9-10.04-5.8-15.07-14.64-15.07-26.5h26.14c0,4.36,1.57,7.86,4.72,10.52,3.39,2.42,8.83,3.63,16.34,3.63,5.69,0,9.99-1.21,12.89-3.63,2.18-1.81,3.26-3.93,3.26-6.35,0-4-5.14-7.14-15.43-9.44-15.49-3.26-25.11-5.87-28.86-7.8-10.41-4.72-15.61-12.34-15.61-22.87,0-8.23,2.72-15.37,8.17-21.42,6.9-7.26,17.18-10.89,30.86-10.89,11.98,0,21.54,1.88,28.68,5.63,9.8,5.32,14.7,14.1,14.7,26.32h-24.87c-.73-4.12-1.94-7.02-3.63-8.71-2.66-2.66-7.14-3.99-13.43-3.99s-10.47,1.03-12.89,3.08c-1.81,1.45-2.72,3.57-2.72,6.36,0,3.51,5.2,6.53,15.61,9.08,15.25,3.39,24.93,6.05,29.04,7.99,10.53,4.96,15.8,12.53,15.8,22.69h0ZM724.85,1141.77h-25.41v-23.6h25.41v23.6ZM724.85,1249.77h-25.41v-96.57h25.41v96.57ZM139.27,1204.21c0,16.58-4.69,28.89-14.07,36.94-9.38,8.05-22.54,12.07-39.48,12.07-7.87,0-14.76-.97-20.69-2.91-8.47-2.54-15.37-6.84-20.69-12.89-6.77-7.74-10.16-18.27-10.16-31.58v-86.4h27.77v84.59c0,8.47,2.18,14.95,6.54,19.43,4.36,4.48,9.93,6.72,16.7,6.72,9.07,0,15.73-2.12,19.97-6.35,4.24-4.24,6.36-10.41,6.36-18.52v-85.86h27.77v84.77h0ZM464.47,1150.67v20.87c-5.77.02-10.3,1.77-13.61,5.27-3.33,3.51-5.35,8.53-6.08,15.07h19.69v16.52h-20.42c.73,8.35,2.94,14.37,6.62,18.06,3.28,3.28,7.88,5.1,13.8,5.47v20.37c-13.78-.37-24.47-4.18-32.04-11.4-9.2-8.84-13.8-22.63-13.8-41.39,0-10.65,2.42-20.21,7.26-28.68,7.8-13.32,20.66-20.03,38.57-20.15h0ZM251.27,1249.77h-25.41v-58.63c0-5.32-.73-9.38-2.18-12.16-2.42-4.6-7.2-6.9-14.34-6.9-5.81,0-10.59,1.97-14.34,5.9-3.75,3.93-5.63,9.41-5.63,16.43v55.36h-25.41v-96.57h24.33v14.16c3.87-5.93,8.2-10.19,12.98-12.79,4.78-2.6,10.26-3.9,16.43-3.9,9.92,0,18,2.81,24.23,8.44,6.23,5.63,9.34,13.59,9.34,23.87v66.8h0ZM301.01,1141.77h-25.41v-23.6h25.41v23.6ZM301.01,1249.77h-25.41v-96.57h25.41v96.57ZM412.1,1153.2l-34.85,96.57h-26.69l-34.67-96.57h28.32l19.97,71.16,20.87-71.16h27.05Z"/>
    <path class="cls-4" d="M853.78,1434.27v-20.37c.74.05,1.49.07,2.27.07,3.51,0,6.83-.91,9.98-2.72,3.14-1.81,5.27-4.42,6.35-7.8h26.14c-3.03,10.65-8.84,18.7-17.43,24.14-7.26,4.48-15.61,6.72-25.05,6.72-.77,0-1.53-.01-2.27-.03h0ZM853.78,1390.37v-16.52h19.69c0-3.39-.64-6.41-1.9-9.08-1.27-2.66-3.06-4.96-5.36-6.9-3.27-2.9-7.38-4.36-12.34-4.36h-.09v-20.87h.46c11.98,0,21.9,3.33,29.77,9.98,10.41,8.96,15.61,23.36,15.61,43.2v4.54h-45.84ZM853.78,1332.65v20.87c-5.77.02-10.3,1.77-13.61,5.27-3.33,3.51-5.35,8.53-6.08,15.06h19.69v16.52h-20.42c.73,8.35,2.93,14.37,6.62,18.06,3.28,3.28,7.88,5.1,13.8,5.47v20.37c-13.78-.37-24.47-4.17-32.04-11.41-9.2-8.84-13.8-22.63-13.8-41.39,0-10.65,2.42-20.21,7.26-28.68,7.8-13.32,20.66-20.03,38.57-20.14h0ZM649.83,1432.45v-16.8c3.92-.75,7.43-2.33,10.53-4.77,4.48-3.51,6.72-8.1,6.72-13.8v-12.34c-1.09.85-3.03,1.82-5.81,2.91l-11.44,2.39v-16.92l8.35-1.26c2.78-.36,4.78-.97,5.99-1.82,1.94-1.33,2.9-3.27,2.9-5.81,0-4.6-1.94-7.8-5.81-9.62-2.42-1.09-6.05-1.63-10.89-1.63h-.55s0-20.27,0-20.27c1.18-.04,2.39-.06,3.63-.06,9.44,0,17.55,1.63,24.33,4.9,9.44,4.72,14.16,12.41,14.16,23.05v52.28c0,1.69.03,3.57.09,5.63.06,2.06.51,3.96,1.36,5.72s2.24,2.99,4.18,3.72v3.81h-27.41c-.97-3.27-1.76-7.08-2.36-11.44-4.11,4.48-7.87,7.56-11.26,9.26-2.09,1.18-4.33,2.13-6.72,2.87h0ZM740.77,1431.76h-25.41v-130.33h25.41v130.33ZM791.24,1431.76h-25.41v-130.33h25.41v130.33ZM649.83,1332.71v20.27c-5.29.1-9.22,1.61-11.8,4.53-1.7,1.81-2.79,4.78-3.27,8.89h-24.51c1.21-13.19,6.29-22.51,15.25-27.95,5.97-3.47,14.08-5.39,24.33-5.75ZM649.83,1373.12v16.92l-.73.15c-5.45.73-9.26,1.94-11.44,3.63-3.39,2.3-5.08,5.87-5.08,10.71,0,3.87,1.33,6.9,3.99,9.08,2.3,1.69,4.9,2.54,7.8,2.54,1.9,0,3.71-.17,5.45-.5v16.8c-3.99,1.23-8.41,1.85-13.25,1.85-7.99,0-14.7-2.18-20.15-6.54-4.56-3.75-7.43-8.66-8.62-14.72v-14.28c1.04-5.6,3.34-10.18,6.9-13.75,5.02-5.02,11.89-8.26,20.6-9.71l14.52-2.19h0ZM607.81,1303.29v-1.86h.64l-.64,1.86ZM607.81,1301.43v1.86l-43.66,128.47h-25.96l-43.93-130.33h29.23l27.95,98.75,28.68-98.75h27.68s0,0,0,0ZM607.81,1398.77c-.42,2.29-.64,4.76-.64,7.4,0,2.44.21,4.73.64,6.88v-14.28ZM338.98,1434.27v-20.37c.74.05,1.49.07,2.27.07,3.51,0,6.83-.91,9.98-2.72,3.14-1.81,5.27-4.42,6.35-7.8h26.14c-3.03,10.65-8.84,18.7-17.43,24.14-7.26,4.48-15.61,6.72-25.05,6.72-.77,0-1.52-.01-2.27-.03h0ZM338.98,1390.37v-16.52h19.69c0-3.39-.63-6.41-1.9-9.08-1.27-2.66-3.06-4.96-5.35-6.9-3.27-2.9-7.38-4.36-12.34-4.36h-.09v-20.87h.46c11.98,0,21.91,3.33,29.77,9.98,10.41,8.96,15.61,23.36,15.61,43.2v4.54h-45.84s0,0,0,0ZM427.84,1431.76h-25.41v-130.33h25.41v130.33ZM278.08,1431.76h-24.87v-12.16c-2.9,5.08-7.08,8.89-12.53,11.44-2.65,1.26-5.53,2.15-8.62,2.68v-20.3c6.99-.2,12.46-3.04,16.43-8.52,3.51-4.97,5.27-11.38,5.27-19.24,0-8.84-1.45-15.91-4.36-21.24-3.61-6.51-9.39-9.78-17.34-9.8v-21.27c4.08.79,7.68,2.25,10.8,4.38,3.39,2.3,6.53,5.63,9.44,9.99l.36-46.29h25.41v130.33h0,0ZM338.98,1332.65v20.87c-5.77.02-10.3,1.77-13.61,5.27-3.33,3.51-5.35,8.53-6.08,15.06h19.69v16.52h-20.42c.73,8.35,2.93,14.37,6.62,18.06,3.28,3.28,7.88,5.1,13.8,5.47v20.37c-13.78-.37-24.46-4.17-32.04-11.41-9.2-8.84-13.8-22.63-13.8-41.39,0-10.65,2.42-20.21,7.26-28.68,7.8-13.32,20.66-20.03,38.57-20.14h0ZM232.06,1433.71c-2.27.39-4.66.59-7.17.59-13.43,0-23.78-5.32-31.04-15.97-6.41-9.56-9.62-21.54-9.62-35.94,0-15.85,3.99-28.32,11.98-37.39,7.26-8.23,16.64-12.34,28.14-12.34,2.74,0,5.31.23,7.72.7v21.27h-.09c-7.5,0-13.13,3.02-16.88,9.08-3.15,5.2-4.72,12.04-4.72,20.51,0,7.38,1.39,13.68,4.18,18.88,3.63,6.9,9.19,10.34,16.7,10.34.27,0,.55,0,.82-.01,0,0,0,20.3,0,20.3Z"/>
  </g>
  <path class="cls-3" d="M12.31,12.31v374.19c0,117.42,62.64,225.92,164.33,284.63,101.68,58.71,226.97,58.71,328.65,0,101.69-58.71,164.33-167.21,164.33-284.63V12.31H12.31Z"/>
  <polygon class="cls-2" points="1060.32 364.05 706.52 1039.08 352.73 364.05 1060.32 364.05"/>
</svg>